<!--?xml version="1.0" standalone="no"?-->
              <svg id="sw-js-blob-svg" viewBox="0 0 100 100" xmlns="http://www.w3.org/2000/svg" version="1.1">
                    <defs> 
                        <linearGradient id="sw-gradient" x1="0" x2="1" y1="1" y2="0">
                            <stop id="stop1" stop-color="rgba(212.951, 79.885, 16.907, 1)" offset="0%"></stop>
                            <stop id="stop2" stop-color="rgba(251.656, 31.346, 31.346, 1)" offset="100%"></stop>
                        </linearGradient>
                    </defs>
                <path fill="url(#sw-gradient)" d="M19.4,-26.5C26,-22,32.6,-17.4,33.5,-11.6C34.4,-5.8,29.6,1.1,27.7,9.7C25.9,18.2,27,28.4,22.8,32.1C18.7,35.8,9.4,33,0.6,32.1C-8.1,31.3,-16.2,32.3,-21.3,29C-26.5,25.6,-28.7,17.8,-31.6,10C-34.5,2.2,-38,-5.7,-36,-11.7C-34,-17.7,-26.4,-21.8,-19.5,-26.1C-12.6,-30.5,-6.3,-35.1,0.1,-35.2C6.5,-35.3,12.9,-31,19.4,-26.5Z" width="100%" height="100%" transform="translate(50 50)" stroke-width="0" style="transition: all 0.3s ease 0s;" stroke="url(#sw-gradient)"></path>
              </svg>